<?xml version="1.0" standalone="no"?>
<!DOCTYPE svg PUBLIC "-//W3C//DTD SVG 20010904//EN"
 "http://www.w3.org/TR/2001/REC-SVG-20010904/DTD/svg10.dtd">
<svg version="1.0" xmlns="http://www.w3.org/2000/svg"
 width="2250.000000pt" height="2250.000000pt" viewBox="0 0 2250.000000 2250.000000"
 preserveAspectRatio="xMidYMid meet">
<metadata>
Created by potrace 1.14, written by Peter Selinger 2001-2017
</metadata>
<g transform="translate(0.000000,2250.000000) scale(0.100000,-0.100000)"
fill="#000000" stroke="none">
<path d="M11025 21454 c-33 -13 -148 -56 -255 -95 -107 -39 -204 -74 -215 -79
-56 -24 -206 -80 -214 -80 -5 0 -22 -6 -38 -14 -15 -8 -59 -27 -98 -41 -38
-15 -83 -33 -100 -40 -16 -7 -48 -20 -70 -29 -267 -110 -621 -301 -815 -441
-47 -33 -91 -65 -99 -69 -14 -9 -14 0 7 184 4 36 7 97 7 137 0 61 -4 75 -23
96 -52 56 -144 12 -303 -143 -203 -199 -285 -273 -374 -341 -126 -98 -209
-131 -284 -117 -25 5 -59 11 -76 14 -16 3 -66 7 -111 9 -322 11 -671 -175
-898 -480 -82 -110 -124 -186 -173 -315 -13 -36 -28 -68 -32 -72 -24 -26 -311
-27 -490 -2 -267 37 -424 19 -542 -63 -95 -65 -393 -323 -654 -567 -323 -302
-1184 -1163 -1228 -1228 -16 -24 -38 -63 -49 -88 -11 -25 -24 -54 -29 -65 -5
-11 -32 -87 -60 -170 -77 -226 -118 -315 -187 -400 -97 -121 -186 -218 -323
-354 -115 -115 -241 -233 -464 -436 -161 -146 -449 -436 -536 -540 -206 -245
-335 -455 -459 -744 -88 -207 -188 -514 -235 -725 -33 -146 -58 -265 -60 -282
-2 -12 -8 -45 -14 -75 -18 -85 -49 -260 -56 -309 -3 -25 -8 -56 -10 -70 -9
-50 -32 -198 -40 -260 -3 -25 -8 -56 -10 -70 -3 -14 -7 -43 -10 -65 -4 -39
-13 -96 -54 -360 -11 -71 -23 -150 -26 -175 -4 -24 -8 -47 -10 -50 -1 -3 -6
-25 -9 -50 -3 -25 -8 -54 -10 -65 -50 -262 -48 -244 -28 -278 58 -97 256 -488
342 -677 156 -341 311 -761 374 -1017 8 -32 27 -105 41 -163 24 -94 67 -300
79 -375 20 -124 24 -154 21 -185 -3 -45 -18 -81 -41 -102 -38 -33 -118 -41
-188 -18 -16 6 -31 9 -33 7 -5 -6 -3 -444 2 -517 5 -56 21 -174 29 -205 2 -5
6 -23 10 -40 17 -66 92 -257 162 -413 13 -29 24 -54 24 -56 0 -3 10 -26 22
-53 12 -26 22 -50 22 -53 1 -3 14 -31 29 -64 15 -32 27 -61 27 -65 0 -3 7 -19
16 -36 9 -16 27 -56 40 -87 13 -32 36 -84 50 -115 14 -32 32 -71 39 -88 8 -16
36 -79 63 -140 516 -1145 722 -1652 943 -2321 l33 -102 41 -5 c70 -10 130 -43
192 -104 86 -86 139 -201 158 -343 3 -25 8 -52 10 -60 2 -8 7 -28 10 -45 2
-16 7 -39 10 -50 2 -11 9 -40 15 -65 60 -248 179 -536 298 -720 84 -129 233
-297 338 -380 88 -70 237 -153 351 -196 163 -62 193 -66 523 -69 168 -2 330
-6 360 -9 199 -24 373 -100 510 -225 142 -130 391 -253 639 -316 63 -16 77
-19 156 -30 22 -3 52 -8 67 -11 37 -8 287 -8 295 -1 5 6 77 -30 338 -168 44
-23 188 -98 320 -165 512 -262 727 -383 993 -562 64 -43 77 -48 116 -45 58 6
96 26 123 65 l22 33 16 -25 c13 -20 16 -49 15 -148 -1 -68 -2 -129 -1 -136 1
-9 12 -11 40 -7 21 3 56 8 77 10 22 3 55 7 74 10 19 2 58 7 85 10 28 3 59 7
70 9 11 2 52 7 90 10 39 4 84 9 100 11 28 4 59 7 195 20 30 3 73 7 95 9 22 3
81 7 130 11 50 3 108 8 130 10 239 24 877 24 1115 0 19 -2 67 -6 106 -10 39
-3 80 -7 90 -9 11 -2 42 -7 69 -10 157 -20 527 -101 615 -134 19 -7 46 -3 105
14 97 29 143 35 260 38 210 6 458 -73 743 -236 46 -27 86 -48 88 -48 2 0 23
-12 45 -27 62 -41 254 -62 307 -34 37 20 40 77 7 177 -5 18 1 26 37 46 115 64
355 135 588 174 14 3 69 14 122 26 150 33 188 15 316 -151 111 -144 180 -200
266 -217 28 -5 37 -4 32 4 -11 19 -9 277 3 334 38 179 139 213 538 184 l62 -4
-2 176 c-2 171 -1 179 23 225 15 28 83 107 165 190 77 78 178 185 225 237 121
137 345 358 415 411 33 25 91 65 128 89 l68 43 36 -39 c20 -22 64 -70 99 -109
35 -38 90 -99 123 -134 60 -64 60 -64 67 -37 16 67 -15 197 -79 323 -15 28
-71 99 -126 158 -55 59 -104 120 -110 136 -17 49 6 63 219 133 185 61 200 64
280 62 93 -2 155 -26 228 -86 20 -17 40 -30 44 -30 4 0 -9 30 -29 66 -59 108
-51 154 35 213 72 50 135 63 317 65 152 3 176 5 223 26 58 25 134 101 158 159
27 63 53 177 56 248 2 37 5 70 8 73 9 8 391 469 456 550 295 367 580 799 832
1260 101 184 288 561 356 715 27 61 60 135 73 165 52 116 187 444 228 557 19
51 39 102 45 113 21 40 1 33 -76 -25 -249 -187 -440 -393 -634 -683 -83 -123
-116 -164 -154 -189 -64 -44 -114 -44 -180 -2 -27 16 -49 29 -50 27 -3 -4 -78
-240 -80 -252 -5 -24 -59 -186 -62 -186 -2 0 -1 15 1 33 3 30 6 61 20 245 4
39 3 72 0 72 -6 0 -88 -62 -180 -135 -60 -48 -185 -145 -430 -333 -137 -106
-258 -199 -267 -207 -9 -8 -198 -150 -420 -315 -222 -166 -410 -307 -418 -313
-63 -49 -729 -528 -874 -628 -43 -30 -122 -84 -175 -121 -117 -82 -675 -456
-786 -527 -44 -28 -87 -56 -95 -61 -231 -156 -351 -194 -457 -145 -54 25 -114
87 -146 153 -19 38 -40 54 -49 34 -1 -4 -57 -54 -122 -110 -157 -135 -220
-153 -267 -79 -17 27 -20 44 -16 102 3 39 8 78 12 88 6 15 4 16 -21 7 -35 -14
-94 -15 -164 -5 -150 21 -194 -4 -250 -147 -38 -99 -58 -99 -110 -2 -34 64
-61 91 -79 80 -5 -3 -12 -32 -17 -63 -4 -32 -8 -60 -9 -63 -1 -3 -5 -30 -9
-60 -9 -58 -9 -60 -22 -130 l-8 -45 -7 58 c-9 76 -37 110 -80 95 -38 -13 -93
-76 -126 -143 l-27 -54 -72 109 c-93 141 -166 230 -242 295 l-23 19 24 -49
c45 -89 74 -219 61 -271 -9 -36 -40 -30 -83 18 l-38 41 -8 -84 c-4 -46 -9 -93
-11 -104 -1 -11 -4 -37 -5 -58 -2 -35 -7 -40 -47 -60 -26 -12 -90 -65 -154
-128 -59 -59 -124 -114 -143 -123 -18 -9 -60 -19 -92 -21 -32 -3 -87 -7 -123
-10 -83 -7 -178 -16 -210 -20 -14 -2 -50 -7 -80 -10 -30 -4 -62 -9 -70 -10 -8
-2 -44 -6 -80 -10 -36 -4 -67 -8 -70 -10 -3 -2 -26 -6 -50 -10 -74 -10 -317
-62 -435 -93 l-110 -28 -135 33 c-136 34 -156 39 -375 88 -146 33 -152 34
-190 41 -16 3 -61 11 -100 19 -161 32 -366 69 -445 80 -67 9 -103 15 -120 20
-8 2 -40 7 -70 10 -30 3 -64 8 -75 10 -11 3 -42 7 -70 11 -27 3 -61 7 -75 9
-14 1 -50 6 -80 9 -30 4 -66 9 -80 11 -40 6 -123 15 -285 30 -33 3 -80 8 -105
10 -42 4 -77 7 -255 21 -219 16 -447 52 -610 95 -22 6 -47 13 -56 14 -9 2 -39
11 -65 20 -27 9 -56 18 -64 20 -150 34 -620 252 -830 385 -8 5 -38 23 -67 39
-56 33 -73 51 -48 51 26 0 93 38 136 77 80 73 116 176 89 258 l-13 38 -13 -31
c-28 -67 -114 -122 -229 -147 -15 -4 -167 -35 -195 -40 -94 -18 -79 -25 -187
82 -190 186 -469 453 -673 643 -14 14 -82 77 -151 141 -68 64 -144 135 -169
157 -25 22 -63 57 -86 79 -47 44 -263 246 -314 293 -31 28 -200 186 -314 293
-383 358 -942 918 -1176 1177 -47 52 -95 105 -107 117 -12 13 -78 88 -146 167
-158 182 -213 264 -321 483 -69 139 -155 334 -231 528 -25 66 -53 134 -60 150
-7 17 -20 48 -28 70 -20 55 -104 259 -132 320 -42 93 -88 190 -91 194 -2 2
-23 -17 -48 -42 -79 -82 -134 -76 -208 23 -39 51 -81 166 -82 219 -1 103 78
189 159 171 32 -7 91 -42 108 -65 5 -5 6 4 3 20 -3 17 -8 57 -12 90 -3 33 -8
62 -9 65 -2 3 -6 33 -10 65 -4 33 -8 71 -11 85 -5 32 -23 155 -29 200 -3 19
-7 46 -9 60 -3 14 -8 45 -11 70 -7 54 -15 114 -21 155 -3 17 -7 46 -9 65 -3
19 -7 46 -9 59 -3 13 -8 49 -12 80 -3 31 -8 64 -10 74 -1 10 -10 70 -19 135
-9 64 -19 128 -21 142 -3 14 -7 68 -9 121 -6 129 15 201 115 404 79 160 118
247 126 275 18 73 24 105 29 163 4 38 8 76 10 87 2 10 6 51 10 92 3 40 8 84
10 98 2 14 7 48 9 75 3 28 8 75 11 105 3 30 8 69 10 85 2 17 7 57 10 90 3 33
7 71 10 85 2 14 7 55 10 92 3 37 7 75 9 85 2 10 7 56 11 103 4 47 8 87 10 90
2 3 6 41 9 85 4 44 9 87 11 95 2 8 6 47 10 85 3 39 8 86 10 105 2 19 7 60 10
90 3 30 8 69 9 85 8 61 19 161 21 185 4 39 25 231 30 275 2 22 7 60 10 85 2
25 7 65 9 90 3 25 8 62 11 84 4 21 8 48 9 60 16 120 110 532 153 671 53 171
132 396 150 430 6 11 12 25 13 30 20 92 242 536 383 765 38 62 203 314 220
335 4 6 31 42 59 80 102 138 257 331 375 465 12 14 31 36 43 50 69 80 240 259
410 430 195 194 270 267 495 475 65 61 148 137 184 171 61 57 137 126 200 183
43 39 243 224 271 251 53 51 137 119 215 172 79 55 381 238 392 238 5 0 141
81 698 413 240 143 554 325 685 396 110 60 484 247 550 275 25 11 86 37 135
58 50 21 98 43 107 48 10 6 23 10 29 10 6 0 25 6 42 14 76 32 100 41 252 92
215 72 441 133 630 170 21 4 115 22 150 29 37 7 230 34 285 40 30 3 70 8 88
11 18 2 72 6 120 10 48 3 114 7 147 9 71 5 395 5 655 0 199 -3 297 10 391 52
91 41 156 129 184 251 13 53 19 418 7 464 -3 15 -7 15 -39 2 -60 -26 -145 -20
-219 15 -53 25 -142 85 -164 112 -19 22 -177 142 -210 159 -57 29 -174 70
-196 69 -11 0 -46 -12 -79 -25z m-8095 -13021 c41 -47 96 -152 165 -318 56
-135 64 -154 101 -231 19 -39 50 -93 68 -122 19 -28 37 -56 41 -62 13 -21
-138 56 -192 98 -42 34 -90 104 -102 151 -6 20 -13 68 -16 106 -10 107 -48
209 -131 346 -19 31 -34 62 -34 68 0 6 13 11 29 11 22 0 39 -11 71 -47z m-245
-76 c15 -45 28 -89 30 -97 2 -9 14 -49 28 -90 28 -85 47 -150 43 -150 -2 0
-45 53 -96 118 -52 64 -111 136 -131 159 -34 37 -37 45 -29 73 12 41 28 60 65
76 45 19 61 3 90 -89z"/>
<path d="M14288 20825 c-2 -2 -80 -5 -173 -7 -155 -4 -174 -6 -218 -28 -62
-31 -132 -106 -163 -175 -26 -56 -32 -62 -50 -47 -15 15 -94 43 -138 50 -99
16 -447 1 -539 -23 -104 -27 -218 -120 -262 -212 -64 -134 -52 -293 31 -425
42 -67 200 -217 299 -284 87 -59 253 -147 325 -174 19 -7 50 -19 68 -27 18 -8
40 -16 50 -18 9 -3 49 -14 87 -25 117 -34 262 -65 360 -75 28 -3 70 -8 95 -11
25 -3 96 -7 158 -9 63 -2 119 -8 125 -13 7 -5 32 -21 57 -34 664 -370 1373
-836 2457 -1615 109 -79 317 -228 463 -333 564 -404 678 -481 729 -495 103
-27 220 3 430 111 80 41 152 74 161 74 14 0 16 -19 13 -167 -4 -296 37 -467
226 -944 121 -305 198 -406 428 -561 120 -80 263 -215 263 -247 0 -5 3 -11 8
-13 13 -6 69 -122 90 -188 12 -36 26 -94 32 -130 12 -68 15 -236 6 -304 -15
-105 -18 -125 -32 -181 -9 -33 -24 -86 -35 -118 l-19 -57 76 -152 c41 -84 100
-195 130 -248 71 -123 75 -129 101 -167 13 -17 23 -36 23 -40 0 -5 8 -18 18
-29 9 -10 35 -44 56 -74 120 -170 323 -383 427 -448 90 -57 101 -80 103 -211
2 -85 6 -115 24 -153 28 -60 74 -96 115 -92 46 6 87 37 141 108 l38 50 -7 -60
c-8 -82 -15 -143 -21 -184 -3 -19 -7 -57 -10 -85 -2 -27 -11 -102 -19 -166
-38 -307 -42 -718 -10 -889 20 -108 43 -176 42 -124 -1 33 12 222 18 257 2 12
6 54 10 92 11 116 15 154 31 290 25 203 28 224 49 350 3 17 10 59 15 95 49
304 177 789 264 992 21 50 21 49 -21 31 -61 -25 -94 -58 -173 -176 -77 -114
-123 -157 -170 -157 l-26 0 0 213 c-1 199 -10 526 -18 592 -2 17 -7 80 -11
140 -3 61 -8 121 -10 135 -2 14 -7 54 -10 90 -5 62 -9 95 -21 205 -7 69 -37
312 -50 410 -2 17 -6 53 -10 80 -9 76 -13 102 -18 143 -3 20 -8 62 -12 92 -7
60 -9 73 -18 140 -10 68 -15 110 -22 169 -3 30 -7 62 -9 71 -2 9 -6 50 -10 91
-3 41 -10 90 -14 110 -5 20 -111 200 -237 400 -125 200 -242 387 -258 414 -17
28 -162 258 -321 512 -160 255 -294 471 -300 481 -5 9 -95 153 -200 320 -104
166 -194 310 -200 320 -5 10 -28 47 -51 82 -84 135 -349 559 -403 645 -89 144
-183 256 -396 471 -303 305 -608 545 -995 781 -256 156 -607 330 -865 430 -49
19 -103 41 -120 48 -84 37 -422 147 -610 199 -187 51 -319 78 -445 92 -30 3
-71 8 -90 11 -36 6 -827 13 -832 8z"/>
<path d="M11005 13890 c-414 -663 -539 -863 -572 -915 -18 -27 -31 -50 -30
-52 2 -1 83 16 181 38 99 22 183 38 187 37 5 -2 -33 -66 -83 -143 -50 -77
-159 -243 -241 -370 -82 -126 -179 -274 -214 -327 -65 -99 -85 -136 -66 -125
5 3 24 9 41 12 18 3 62 12 99 21 38 9 79 18 93 20 14 3 33 7 42 10 10 3 30 7
45 10 16 3 36 7 45 10 9 3 27 7 40 9 13 3 35 7 51 11 15 3 27 3 27 0 0 -3 -55
-90 -123 -193 -68 -103 -175 -267 -237 -363 -62 -96 -151 -233 -198 -305 -223
-341 -323 -497 -320 -500 2 -2 59 10 128 26 69 16 136 31 150 33 14 2 115 25
225 51 110 25 209 48 220 50 19 5 322 73 358 81 9 2 27 6 40 9 12 3 51 12 87
20 36 9 75 18 88 21 l22 4 0 -540 0 -540 68 -1 c75 0 266 0 297 1 21 0 21 3
20 531 0 292 2 532 5 534 3 2 62 -10 130 -26 69 -15 136 -30 150 -33 14 -3
135 -30 270 -61 135 -31 256 -58 270 -61 14 -3 33 -7 42 -10 10 -3 29 -7 43
-10 14 -2 65 -14 113 -25 48 -12 98 -23 112 -25 14 -3 32 -7 40 -10 31 -11 90
-15 90 -7 0 5 -24 46 -52 91 -80 123 -250 385 -373 574 -60 92 -153 234 -205
315 -52 80 -118 180 -145 222 -69 104 -96 151 -87 151 5 0 78 -16 163 -35 85
-20 163 -37 174 -39 38 -8 120 -27 138 -32 18 -6 -26 67 -213 351 -54 83 -160
245 -235 360 -75 116 -144 221 -153 233 l-16 24 40 -6 c21 -4 46 -9 54 -11 14
-4 173 -39 230 -51 14 -3 33 -7 44 -10 14 -5 16 -3 10 7 -20 36 -141 230 -169
274 -49 77 -169 268 -180 287 -5 10 -91 147 -190 304 -99 158 -189 302 -200
320 -83 136 -108 174 -114 174 -3 0 -119 -180 -256 -400z"/>
<path d="M15443 9741 c-61 -38 -79 -109 -43 -168 69 -114 230 -69 230 66 0 91
-110 151 -187 102z"/>
<path d="M5273 9742 l-23 -3 0 -755 0 -755 280 1 c260 2 286 3 353 24 152 47
226 126 259 276 19 84 18 787 -1 864 -44 180 -177 305 -359 336 -63 10 -455
20 -509 12z m510 -256 c64 -18 103 -57 122 -118 17 -58 20 -743 4 -803 -16
-58 -57 -91 -131 -104 -71 -14 -262 -21 -278 -11 -8 5 -15 649 -10 1022 0 23
5 27 33 30 72 7 211 -2 260 -16z"/>
<path d="M10509 9668 c0 -91 0 -1420 0 -1431 1 -4 54 -6 119 -5 l117 3 0 208
0 207 156 0 156 0 21 -57 c12 -32 44 -127 73 -210 l51 -153 120 0 c120 0 120
0 115 23 -3 12 -40 124 -82 250 l-78 227 28 28 c69 68 118 181 130 304 38 368
-71 601 -309 664 -34 9 -135 13 -332 14 l-284 1 -1 -73z m574 -197 c55 -26 91
-80 102 -151 12 -70 7 -203 -10 -290 0 -3 -9 -22 -19 -43 -20 -41 -65 -83
-105 -99 -26 -9 -247 -18 -286 -10 -20 3 -20 10 -20 314 l0 310 145 -4 c126
-3 152 -7 193 -27z"/>
<path d="M12634 9723 c2 -10 7 -31 10 -48 6 -36 76 -401 82 -430 2 -11 7 -33
10 -50 3 -16 11 -61 19 -100 8 -38 16 -83 19 -100 2 -16 11 -64 20 -105 19
-93 35 -177 87 -455 16 -88 32 -170 34 -182 5 -23 8 -23 143 -23 l138 0 17 68
c10 37 20 76 22 87 16 79 148 595 151 592 3 -2 6 -13 8 -23 2 -11 32 -129 66
-264 34 -135 73 -293 88 -353 l26 -108 135 3 135 3 8 35 c4 19 14 71 22 115 9
44 18 94 21 110 3 17 17 89 30 160 30 157 33 173 40 205 2 14 7 39 10 55 2 17
18 99 35 184 17 84 32 166 35 181 3 14 12 62 20 106 28 141 65 339 65 347 0 4
-61 7 -135 7 -74 0 -135 -3 -136 -7 -2 -24 -32 -204 -43 -258 -2 -11 -9 -54
-16 -95 -15 -97 -16 -103 -41 -245 -11 -66 -23 -136 -25 -155 -8 -58 -34 -193
-38 -197 -2 -2 -7 16 -11 39 -4 24 -9 48 -10 53 -2 6 -6 21 -9 35 -3 14 -10
43 -15 65 -6 22 -14 58 -19 80 -5 22 -44 183 -86 359 -42 175 -76 320 -76 322
0 3 -39 3 -87 2 -67 -2 -87 -6 -88 -18 -2 -8 -17 -73 -35 -145 -17 -71 -33
-139 -35 -150 -3 -11 -9 -38 -14 -60 -12 -45 -65 -270 -106 -445 -15 -63 -30
-118 -34 -123 -4 -4 -13 25 -19 65 -6 40 -13 82 -16 93 -2 11 -14 74 -25 140
-12 66 -26 140 -31 165 -5 25 -11 59 -14 75 -5 34 -39 217 -50 272 -10 47 -20
118 -18 126 1 4 -59 7 -134 7 -124 0 -135 -1 -130 -17z"/>
<path d="M14288 9728 c-2 -7 -4 -346 -3 -753 l1 -740 119 -3 120 -3 -1 420 -1
420 31 13 c96 40 213 22 253 -39 33 -50 39 -123 38 -470 l0 -343 117 0 c116 0
118 0 119 23 5 208 -2 783 -11 822 -38 167 -184 259 -400 251 -47 -2 -97 -9
-112 -15 -16 -6 -29 -9 -30 -8 0 1 -2 97 -4 212 -1 116 -3 213 -3 218 -2 13
-228 8 -233 -5z"/>
<path d="M15902 9078 l3 -663 24 -53 c41 -91 132 -148 249 -157 40 -3 52 0 57
13 4 9 20 51 35 93 l29 77 -41 6 c-62 10 -97 35 -107 76 -5 19 -8 166 -8 325
l2 290 30 2 c17 0 51 2 76 2 l46 1 25 108 25 107 -102 5 -101 5 0 212 1 213
-123 0 -122 0 2 -662z"/>
<path d="M6755 9318 c-22 -5 -98 -10 -170 -11 l-129 -2 -1 -525 c0 -289 1
-531 3 -537 5 -14 231 -19 233 -5 1 4 2 171 2 372 2 362 2 365 25 402 46 74
150 106 240 75 42 -15 43 -14 51 6 10 27 45 177 45 196 2 31 -208 51 -299 29z"/>
<path d="M7400 9317 c-126 -29 -219 -106 -261 -215 -20 -53 -21 -77 -23 -337
-2 -347 7 -397 86 -471 63 -60 130 -84 247 -89 112 -4 290 37 369 86 20 13 20
13 2 58 -10 25 -29 72 -43 103 l-25 57 -49 -23 c-70 -34 -144 -56 -196 -60
-60 -5 -124 24 -138 61 -13 36 -18 112 -7 119 4 3 41 7 81 9 116 6 317 17 380
20 33 2 61 6 65 9 7 7 6 360 -1 396 -26 138 -89 216 -209 262 -66 25 -202 32
-278 15z m189 -242 c44 -22 60 -57 65 -134 2 -38 0 -75 -4 -81 -7 -12 -102
-21 -230 -24 l-65 -1 1 75 c1 83 22 143 58 162 52 28 125 29 175 3z"/>
<path d="M16747 9314 c-100 -24 -169 -70 -216 -144 -55 -85 -59 -118 -57 -446
l1 -299 29 -58 c53 -109 159 -161 321 -159 111 1 132 4 223 31 73 22 142 56
142 71 0 10 -53 138 -71 172 l-14 26 -48 -24 c-88 -42 -149 -58 -220 -57 -82
2 -127 52 -127 143 0 35 3 40 23 41 12 0 42 2 67 4 25 1 108 6 185 10 131 7
240 13 258 14 4 1 7 89 7 195 -2 252 -16 310 -98 393 -39 40 -106 77 -159 89
-56 13 -189 12 -246 -2z m194 -235 c9 -5 29 -22 43 -40 23 -27 26 -39 26 -110
0 -56 -4 -79 -12 -80 -7 -1 -24 -2 -38 -4 -14 -1 -76 -5 -137 -9 l-113 -7 0
61 c0 80 17 143 44 169 38 36 138 47 187 20z"/>
<path d="M7930 9301 c0 -5 11 -42 24 -82 14 -41 61 -189 106 -329 45 -140 111
-346 147 -457 l65 -203 114 0 c112 0 122 3 129 37 11 58 141 523 146 523 4 0
25 -68 35 -115 1 -5 19 -71 39 -145 20 -74 46 -172 57 -218 l21 -83 115 3 115
3 43 130 c23 72 88 272 144 445 56 173 115 355 131 404 16 49 29 91 29 93 0 2
-57 2 -127 1 -125 -3 -126 -3 -134 -28 -4 -14 -42 -157 -85 -317 -43 -161 -81
-293 -85 -293 -4 0 -12 19 -17 43 -5 23 -33 125 -61 227 -29 102 -54 193 -56
204 -4 16 -25 91 -41 149 -5 15 -19 17 -118 17 l-112 0 -27 -102 c-15 -57 -45
-173 -68 -258 -22 -85 -42 -159 -43 -165 -8 -33 -28 -102 -33 -115 -4 -13 -34
77 -87 265 -8 28 -36 123 -63 212 l-48 163 -127 0 c-71 0 -128 -4 -128 -9z"/>
<path d="M15384 8770 l1 -540 117 0 118 0 0 540 0 540 -118 0 -118 0 0 -540z"/>
<path d="M10114 8443 c-32 -6 -74 -55 -80 -94 -3 -24 1 -44 16 -67 54 -86 183
-57 197 45 10 77 -51 129 -133 116z"/>
<path d="M11624 8435 c-83 -35 -87 -150 -7 -194 87 -46 191 54 146 141 -27 54
-86 76 -139 53z"/>
</g>
</svg>
